#!OML:ASF F:\VICON\USERDATA\INSTALL\rory3\rory3.ASF
:FULLY-SPECIFIED
:DEGREES
547
root -7.11267 18.0528 -14.6749 19.125 41.0444 4.98956
lowerback -5.89032 -0.855924 -0.633765
upperback -0.980585 -1.07983 -0.509356
thorax 2.29372 -0.538437 -0.251754
lowerneck -19.3357 -0.339415 1.97538
upperneck 18.0293 -0.340711 -3.08854
head 8.81898 -0.355114 -1.42185
rclavicle -8.05078e-014 3.57812e-015
rhumerus -30.1508 3.1603 -89.4213
rradius 24.004
rwrist 10.329
rhand -17.8939 11.4669
rfingers 7.12502
rthumb 8.37272 -18.3472
lclavicle -8.05078e-014 3.57812e-015
lhumerus -41.0196 -12.3857 88.3629
lradius 34.2728
lwrist 9.47911
lhand -6.52448 25.8595
lfingers 7.12502
lthumb 19.3281 54.919
rfemur -16.1905 -7.58049 20.7018
rtibia 25.1113
rfoot -24.5286 13.0206
rtoes 6.06952
lfemur -44.7657 4.75012 -26.5354
ltibia 45.6549
lfoot -12.8904 -4.75732
ltoes -17.9252
548
root -7.0749 18.0559 -14.6285 19.1908 40.991 4.86412
lowerback -5.97077 -0.842739 -0.507761
upperback -1.00317 -1.06927 -0.515149
thorax 2.31299 -0.532104 -0.328639
lowerneck -19.3302 -0.309512 1.94181
upperneck 18.1189 -0.287623 -3.08663
head 8.85037 -0.332125 -1.40969
rclavicle -4.35835e-014 2.66371e-014
rhumerus -30.3692 3.54314 -89.5344
rradius 24.4758
rwrist 9.76344
rhand -17.8579 11.3453
rfingers 7.12502
rthumb 8.40751 -18.4674
lclavicle -4.35835e-014 2.66371e-014
lhumerus -40.8052 -12.4116 88.2449
lradius 34.7272
lwrist 9.55922
lhand -6.65312 25.6756
lfingers 7.12502
lthumb 19.2044 54.7474
rfemur -15.9102 -7.49996 20.8006
rtibia 24.654
rfoot -24.4621 12.986
rtoes 5.74799
lfemur -44.9963 5.01167 -26.9272
ltibia 44.3445
lfoot -12.9628 -4.78729
ltoes -19.5086
549
root -7.03591 18.0576 -14.579 19.2413 40.8999 4.76115
lowerback -6.01542 -0.854116 -0.484169
upperback -1.03245 -1.08628 -0.487567
thorax 2.30785 -0.540399 -0.315287
lowerneck -19.3718 -0.239187 1.9393
upperneck 18.2569 -0.179068 -3.12257
head 8.90835 -0.285508 -1.4092
rclavicle -7.72775e-014 1.90833e-014
rhumerus -30.5773 4.00534 -89.6474
rradius 24.9008
rwrist 9.34459
rhand -17.9835 11.2847
rfingers 7.12502
rthumb 8.2863 -18.5328
lclavicle -7.72775e-014 1.90833e-014
lhumerus -40.6058 -12.6583 88.3088
lradius 35.0686
lwrist 10.2458
lhand -7.00538 25.4725
lfingers 7.12502
lthumb 18.8656 54.5776
rfemur -15.5741 -7.60003 20.8862
rtibia 24.1599
rfoot -24.2253 13.1347
rtoes 6.21741
lfemur -45.2141 5.31738 -27.3511
ltibia 42.9517
lfoot -13.0167 -4.93117
ltoes -20.4493
550
root -6.99393 18.0568 -14.5281 19.2974 40.782 4.7133
lowerback -6.05034 -0.851093 -0.491176
upperback -1.064 -1.08126 -0.495257
thorax 2.29487 -0.537791 -0.319113
lowerneck -19.3084 -0.204638 1.92191
upperneck 18.2941 -0.132834 -3.08409
head 8.91123 -0.26024 -1.38705
rclavicle 5.397e-014 -1.2921e-014
rhumerus -30.8398 4.45204 -89.7601
rradius 25.3323
rwrist 8.84508
rhand -18.0478 11.2934
rfingers 7.12502
rthumb 8.22415 -18.5265
lclavicle 5.397e-014 -1.2921e-014
lhumerus -40.3864 -12.7223 88.2156
lradius 35.4697
lwrist 10.8156
lhand -7.23085 25.2742
lfingers 7.12502
lthumb 18.6488 54.4003
rfemur -15.1952 -7.7754 20.9014
rtibia 23.6327
rfoot -23.9474 13.5964
rtoes 7.23804
lfemur -45.3669 5.58138 -27.7783
ltibia 41.4885
lfoot -13.0756 -5.17796
ltoes -20.7305
